<svg width="33" height="30" viewBox="0 0 33 30" fill="none" xmlns="http://www.w3.org/2000/svg">
<path d="M31.5004 4.63995C30.1604 1.88995 26.3004 -0.360052 21.8104 0.949948C19.6648 1.56969 17.7929 2.89873 16.5004 4.71995C15.2078 2.89873 13.3359 1.56969 11.1904 0.949948C6.69036 -0.340052 2.84036 1.88995 1.50036 4.63995C-0.379645 8.48995 0.400356 12.8199 3.82036 17.5099C6.50036 21.1799 10.3304 24.9 15.8904 29.2199C16.0661 29.357 16.2825 29.4314 16.5054 29.4314C16.7282 29.4314 16.9446 29.357 17.1204 29.2199C22.6704 24.91 26.5104 21.2199 29.1904 17.5099C32.6004 12.8199 33.3804 8.48995 31.5004 4.63995Z" fill="#01ACB4"/>
</svg>
