<svg width="25" height="29" viewBox="0 0 25 29" fill="none" xmlns="http://www.w3.org/2000/svg">
<path d="M15.4897 28.9222C14.3722 29.2623 13.4853 28.4253 13.1957 27.6175C13.0296 27.1546 12.8784 26.7257 12.736 26.3232C12.1705 24.7228 11.7535 23.5437 11.1839 22.357C9.38696 18.6101 7.09302 15.6779 2.80485 13.6639C1.16797 12.895 0.116946 11.0281 0.631607 9.13557L1.46836 6.05976C1.70347 5.19489 2.16039 4.41014 2.79172 3.78693C3.42306 3.16371 4.20581 2.72473 5.05878 2.5155L14.5994 0.176722C16.1841 -0.211901 17.8543 0.0459614 19.2565 0.89571C20.6587 1.74546 21.6828 3.12038 22.1118 4.72936L24.3725 13.208C24.9902 15.5259 23.2855 17.8106 20.938 17.8106H17.5205C18.0047 19.5039 18.3763 21.579 18.3613 23.4667C18.3518 24.6388 18.1932 25.8041 17.7707 26.7729C17.3374 27.7653 16.6092 28.5828 15.4897 28.9222Z" fill="#01ACB4"/>
</svg>
